<?xml version="1.0" standalone="no"?>
<!DOCTYPE svg PUBLIC "-//W3C//DTD SVG 20010904//EN"
 "http://www.w3.org/TR/2001/REC-SVG-20010904/DTD/svg10.dtd">
<svg version="1.0" xmlns="http://www.w3.org/2000/svg"
 width="209.000000pt" height="209.000000pt" viewBox="0 0 209.000000 209.000000"
 preserveAspectRatio="xMidYMid meet">
<metadata>
Created by potrace 1.14, written by Peter Selinger 2001-2017
</metadata>
<g transform="translate(0.000000,209.000000) scale(0.100000,-0.100000)"
fill="#000000" stroke="none">
<path d="M888 2074 c-389 -58 -720 -345 -836 -726 -12 -36 -23 -84 -27 -105
-3 -21 -8 -50 -10 -63 -11 -53 -5 -239 10 -320 70 -371 329 -671 685 -793 41
-15 89 -28 105 -31 17 -3 53 -10 80 -15 78 -15 298 -5 390 17 362 87 655 367
759 726 106 368 -3 768 -282 1035 -233 221 -554 323 -874 275z"/>
</g>
</svg>
